<svg id="Layer_1" data-name="Layer 1" xmlns="http://www.w3.org/2000/svg" width="881.92" height="568.4" viewBox="0 0 881.92 568.4"><defs><style>.cls-1{fill:#0a2a4f}</style></defs><path class="cls-1" d="m501.65 212.11 26.81 12.48-26.81-12.48v86.57L456.09 222l-8.15-13.72-6-10.09-2.43-4.08h-46.64V374.3H434V263.75l63.67 110.55h45.11V194.1h-41.13Zm38.13 40.82V371.3h-40.37l-62.82-109-5.59-9.77V371.3h-35.13V197.1h41.94l1.56 2.62 6 10.09 8.15 13.71 45.56 76.69 5.58 9.4v-92.79l35.13 16.35ZM881.92 256.45v-1.77c0-39.36-24.77-61.69-77.17-61.69-51.74 0-77.17 17.25-77.17 54.17v2.22c0 32.5 15.93 47.31 66.12 52 37.36 4.2 44 8.4 44 20.56v.88c0 11.5-10.84 16.37-32.06 16.37-22.34 0-33.83-7.74-33.83-26.76v-1.77h-44.23v2.21c0 1.55 0 3.06.11 4.54 1.72 41.14 27.34 58 77.06 58q22.17 0 38-4.44c26-7.26 39.14-23.53 39.14-49.29v-1.33c0-36.48-17.47-51.3-67.22-54.83-35.82-2.66-42.89-6.64-42.89-18.58v-.66c0-9.95 9.06-16.14 31.84-16.14 23 0 34.05 8.4 34.05 24.32v2Zm-77.17 116c-47.4 0-70.37-15.53-73.72-50.17L833.62 370a157.65 157.65 0 0 1-28.87 2.41ZM171.43 0v58.32l44.22 20.6V0h-44.22zM0 238.32h55.21V374.3h44.22V238.32h58.77V194.1H0v44.22zM171.34 374.3h44.23V302h11l-55.23-82.02V374.3zM51.4 145.93h55.72l8.4 34.27H158l-.63-2.44-35.23-136.61-.5-1.95v-.1l-1.16-4.52L111.54 0h-65v.14L39.8 26.25.32 180.2H43Zm102.7 31.27h-6.91L101.7 111l-.07-.28-.44-1.85-1-4.33L82.17 30l-2.7-11.2 38.43 17.9.81 3.14v.11l.5 1.95ZM48.51 4.38l30.61 14.26L76.34 30 68.4 62.57l-25.35-36.9ZM69.73 69.8l9.53-39.07 18 74.54 1 4.33.44 1.84H59.58l8.48-34.81.54-2.18v-.19l.4-1.65.26-1 .43-1.78ZM410 527.27h-1.24V388.2h-44.23v180.2h119v-41.13H410Zm70.49 38.13H414l-46.45-67.6V391.2h38.22v139.07h74.73ZM385.75 180.2h37.06v-41.12h-74.73V0h-44.22v180.2h81.89Zm-78.89-40.65V124.7l112.74 52.5H306.86ZM290.39 139.08h-74.74V78.92l-44.22-20.6V180.2h119Zm-3 38.12h-113V63l38.22 17.8v61.25h74.74Z"/><path class="cls-1" d="M277 257.78h-61.43V194.1h-44.23V220l55.23 82H277v72.3h44.22V194.1H277Zm3 0V197.1h38.22v174.2H280V299h-51.83l-53.83-79.94v-22h38.23v63.68H280ZM379.17 194.1H335v180.2h44.22Zm-3 177.2H338V197.1h38.22ZM631.87 375.41c28.84 0 47.19-11.23 55.9-28a50.8 50.8 0 0 0 2.25-5l2 7.3 6.81 24.54h17v-98.78H635.4v30.3h36v1.55a38.12 38.12 0 0 1-2.3 14.22c-.16.4-.33.78-.51 1.16a19.13 19.13 0 0 1-9.23 9.39c-5.94 2.93-13.87 3.75-23.33 3.75-23.69 0-35.27-8.21-36.58-36.19-.08-1.79-.13-3.65-.13-5.6v-19.9a88.65 88.65 0 0 1 1.26-15.94c3.56-19.26 14.76-25.63 34.78-25.63 24.55 0 36 8.62 36.49 29v1.76h44v-2.43c-.22-44.22-25.65-67.88-80.26-67.88-40.3 0-66 15.23-75.87 46.18a96.92 96.92 0 0 0-4 20.78c-.12 1.33-.22 2.68-.3 4-.17 2.57-.28 5.2-.28 7.94v23.66c0 51.96 22.78 79.82 76.73 79.82Zm-73.73-99.78v-3.7c0-2.43.09-5 .27-7.75.1-1.48.19-2.78.3-4a97.21 97.21 0 0 1 2.94-16.86L597.29 260a96.9 96.9 0 0 0-.93 14.18V294c0 2 0 3.89.13 5.74.69 14.72 4.14 24.46 10.86 30.65 6.21 5.73 15.34 8.4 28.72 8.4 11.37 0 19-1.25 24.66-4.06A22 22 0 0 0 671.35 324c.22-.47.41-.89.57-1.3a40.88 40.88 0 0 0 2.52-15.34v-4.55h-36V279.1l74.49 34.69v57.51h-11.79l-6.2-22.3-2-7.3-2.43-8.73-3.26 8.45a47.48 47.48 0 0 1-2.12 4.68 44.46 44.46 0 0 1-19.13 19c-9.26 4.88-20.73 7.36-34.1 7.36-50.3 0-73.73-24.41-73.73-76.82ZM498.05 568.4h44.23V388.2h-44.23Zm3-177.2h38.23v174.2h-38.23ZM638.05 540.32 602.2 388.2h-44.3l45.21 180.2H673l45.2-180.2h-44.76Zm76.3-149.12-43.7 174.2h-65.2l-43.7-174.2h38.08l35.3 149.8 2.94 12.47L641 541l34.86-149.8ZM763.31 388.2h-28.87v180.2h141.35v-41.13h-97.13v-32.94h78.71v-38h-78.71v-27h97.13V388.2H763.31Zm109.48 38.12h-97.13v33h78.71v32h-78.71v38.94h97.13v35.14H737.44V391.2h135.35Z"/></svg>