<svg id="Lager_1" data-name="Lager 1" xmlns="http://www.w3.org/2000/svg" width="201.08" height="81.99" viewBox="0 0 201.08 81.99">
  <defs>
    <style>
      .cls-1{fill:#1a2c4c}
    </style>
  </defs>
  <path class="cls-1" d="M34.3 13a8.84 8.84 0 0 1 6.46 9c-.06 6.61-4.25 7-5.1 7a24 24 0 0 0-3.22-.41c-3.68 0-3.19 2.7-3.19 2.7 0 1.05 1.53 1.93 3.1 1.77s1.47-.78 3.89-.92c.76 0 7.14 1 6.64 10-.55 10.11-7 13.58-7.85 14.06-3 1.8-6.62 2.14-8.15-.17-1.3-1.94-1.12-4.09.55-5.19a16.27 16.27 0 0 1 1.68-.84 2.83 2.83 0 0 0 1.52-3.12 2.65 2.65 0 0 0-2.82-2.28 4.36 4.36 0 0 0-3.14 1.18c-2.1 1.79-2.11 4.6-2.11 6s.26 4.67 4.06 7.64c5.47 4.28 12.86.4 12.86.4 11.91-6.13 12.64-27.34.78-29.76 9.82-6.41 5.27-15.38.9-18a21 21 0 0 0-3.59-1.64c3.33-2.1 5.2-2.07 5.2-2.07l-1.3-1.16a18 18 0 0 0-6.41 2.5 28.89 28.89 0 0 0-14.43.43 22.54 22.54 0 0 0-12.77 9.1 12 12 0 0 0-1.66 9.4c2.15 7 7.1 6.5 7.1 6.5a2.58 2.58 0 0 0 2.92-2.44 2.37 2.37 0 0 0-1.44-2.07c-4.9-1.63-4.7-5.65-4.7-5.65a8.79 8.79 0 0 1 .52-2.86 14.31 14.31 0 0 1 5.25-6.1 23.1 23.1 0 0 1 15.8-3.58 30.69 30.69 0 0 0-6.42 8.42c-1.94 3.92-3.79 9.29-8.88 25.28-3.29 10.33-7.84 12.09-7.84 12.09a6.66 6.66 0 0 1-1.93.56 3.67 3.67 0 0 0-1.24-.19 2.6 2.6 0 0 0-1 .2 5.59 5.59 0 0 1-.6-.11L3 58.62s-.64.2-1.13.4c-4 2.22-.17 4.63-.17 4.63a9.74 9.74 0 0 0 8 .15c4.67-1.81 7.77-6.82 10-11.65s7.15-24.62 7.15-24.62S28.63 17.86 34.3 13Z"/>
  <path class="cls-1" d="M54 51.26c4.1.55 7.64-4.24 7.64-4.24s1.81 3 4.15 2.66c3.36-.54 6.54-5.66 7.59-7.52l-1.24 6.07 5.18-.46 2.35-11.51a16.26 16.26 0 0 1 4.81-6.5c-.48 1.62-.48 4.88 1.72 4.71s3.57-3.66 3.57-3.66a8.53 8.53 0 0 0 .22-5c-.85-2.57-2.66-2.1-3.87-1.27-2.81 1.95-5.53 7.21-5.53 7.21l1.36-6.66-5.18.47-2.25 11c-2.78 6.79-4.48 8.57-5.8 8.65-1.72.14-.89-3.21-.89-3.21L72 25.39l-5 1.86a4.44 4.44 0 0 0-3.56-1.14 8.29 8.29 0 0 0-5.59 2.53c-6.76 6.3-6.88 15.94-6.88 16.71s.17 5.53 3.03 5.91Zm4.6-15.62c1.1-3.52 3-6.29 4.54-6.36s1.9 1.37 2 2a11.69 11.69 0 0 1-.14 2.04 74.62 74.62 0 0 1-2.11 9.12c-.75 2.1-2 3.51-3.61 3.76a1.63 1.63 0 0 1-2-1.49c-.28-1.16-.57-3.06 1.3-9.07ZM116.7 18.51c1.32.5 3-.54 3.62-2.32s.13-3.63-1.2-4.13-3 .54-3.63 2.31-.13 3.63 1.21 4.14ZM124.15 17.91c1.33.51 3-.53 3.62-2.32s.14-3.63-1.2-4.13-2.95.54-3.62 2.33-.13 3.63 1.2 4.12ZM198.71 28.25s-2 3.37-4 3.6c-1.73.21-1.5-1.7-1.5-1.7L195 19.44a3 3 0 0 0-3.18-3.44c-3.4 0-6.9 5.64-6.9 5.64l.77-4.61-4.78.43-3.14 18.64 4.78-.43 1.55-9.16c.61-2.55 3.16-5.33 3.16-5.33a3.26 3.26 0 0 1 1.6-.85c1.22-.1 1 1.57 1 1.57l-1.55 9s-.81 3.3 1.11 4a5.79 5.79 0 0 0 4.27-.33c3.16-1.29 5.76-5.47 5.81-5.37a11.53 11.53 0 0 1-.79-.95ZM167.94 37.62c3-.06 6.45-1.36 9.58-6.37l-.85-.76s-1.84 3.51-5.47 3.61c-2.68 0-2.89-3-2.81-4.52 1.64-.21 4.86-.8 6.77-2.47 2.42-2.11 3.09-3.64 3.12-6.06s-1.33-3.86-4.08-3.84-6.14 2.53-7.67 4.85a20.51 20.51 0 0 0-3.05 9.56c-.14 3.47 1.44 6.05 4.46 6Zm4.45-17.81c1.5-1.06 1.82.11 1.82.11s1 1.66-.51 4.65a7.27 7.27 0 0 1-2.65 2.83 7.6 7.6 0 0 1-2.48.63c.28-1.67 1.28-6.45 3.82-8.22ZM163.84 18.43l-4.73 1.95a3.5 3.5 0 0 0-2.36-.79 7.06 7.06 0 0 0-4.61 2 19.52 19.52 0 0 0-6.07 13.83v.47a8.12 8.12 0 0 1-2.72 1.85c-1.27.41-.7-2.1-.7-2.1l2.47-11.37s.64-4.56-2.71-4.59c-2.67 0-5.8 3.76-7 5.42l.8-4.08-5.21.48-2.8 14.36c-1.42 2.86-2.9 4.13-4.16 4.13-1.59 0-.7-2.79-.7-2.79l3.25-15.76-5.11 1.94a3.83 3.83 0 0 0-2.73-.92 7.64 7.64 0 0 0-5 2.11c-5.08 4.27-6.19 12.75-6.18 14.55v.23a10.1 10.1 0 0 1-2.9 2.43c-1.27.54-.64-2.07-.64-2.07l2.89-13.21s.62-3.7-3.07-3.77c-3.36-.06-7.43 5.95-7.58 6.18l1.05-5.11-5.09.47-4.65 22.39 5.09-.47 2.43-11.76a20.08 20.08 0 0 1 3.5-5.9 3.26 3.26 0 0 1 1.65-1c1.25-.1 1 1.73 1 1.73l-2.58 12.4s-.86 2.75 1.08 3.73c1.07.54 2.27.09 3.47-.62a46.86 46.86 0 0 0 4.54-3.87 3.34 3.34 0 0 0 2.5 2.84c4.24.68 7.09-3.18 7.09-3.18a3.56 3.56 0 0 0 3.73 2.78c3-.22 5.26-2.64 6.52-4.31l-.55 2.79 5.19-.52 2.06-10.57c1.2-3.91 3-5.34 3-5.34a3.16 3.16 0 0 1 1.6-.93c1.26-.1 1.1 1.73 1.1 1.73l-2.4 11.92s-.59 2.77 1.36 3.17a4.75 4.75 0 0 0 3-.38c1.35-.5 3.49-2.66 4.44-3.59a3 3 0 0 0 2.33 2.46c4 .65 7.09-3.05 7.09-3.05a2.58 2.58 0 0 1 .68-.81 35.74 35.74 0 0 1-.88 4.92c-7.4 3.15-12.22 8.84-13.6 15.39-.64 3.08.54 5.09 3.7 5 .89 0 4.64-.22 7.89-4.31 3.07-3.86 4.2-9.45 5.16-12.47.52-1.66 2.23-10.87 2.23-10.87ZM120.17 28.7a54.74 54.74 0 0 1-2 7.9c-.84 2-2.13 3.22-3.59 3.44a1.47 1.47 0 0 1-1.79-1.29c-.19-1-.26-2.83 1.44-8 1-3 2.89-5.37 4.28-5.43a1.7 1.7 0 0 1 1.76 1.61 7 7 0 0 1-.1 1.77Zm26.92 29.88c-1.8 1.38-3 .24-3 .24s-1-1.06.14-4.1a20.67 20.67 0 0 1 10.82-11.8c-2.76 12.08-6.68 14.68-7.96 15.66Zm11-33.1a59.68 59.68 0 0 1-1.81 7.52 4.54 4.54 0 0 1-3.28 3.1 1.42 1.42 0 0 1-1.8-1.23c-.18-.95-.69-2.51.93-7.46.94-2.9 2-5 3.9-5.18a1.82 1.82 0 0 1 2.05 1.68 6.49 6.49 0 0 1 .01 1.57Z"/>
  <path class="cls-1" d="M147.74 43.7c-73.34 9.62-120.67 27-120.67 27L22.48 82s30.06-20.79 121.93-35.15ZM195.58 40.14c-1.9-.76-8.11-.52-8.11-.52C178.44 39.58 161 42 161 42l-.68 2.62c25.13-2.63 28.09-1.69 29.92-1.4s1.62.84 1.7 1.33a7.35 7.35 0 0 0 .32 2.24c.38 1.12 2.06.33 2.06.33a4.9 4.9 0 0 0 2.26-2.35c1.42-2.62.89-3.87-1-4.63ZM197.79 6.64a3.74 3.74 0 1 0 3.27 4.15 3.74 3.74 0 0 0-3.27-4.15Zm2.88 4.11A3.34 3.34 0 1 1 197.74 7a3.34 3.34 0 0 1 2.93 3.75Z"/>
  <path class="cls-1" d="M199.07 9.65c.1-.81-.4-1.31-1.41-1.43l-1.44-.17-.49 4.15.62.07.19-1.66.83.09h.06l.76 1.78.66.08-.8-1.86a1.14 1.14 0 0 0 1.02-1.05Zm-1.63.55-.83-.1.17-1.48.83.11c.71.08.94.37.89.85s-.35.71-1.06.62ZM149.1 12.07c.8-.57 2.32-1 5-1.94a6 6 0 0 0 3.62-2.72 3.52 3.52 0 0 0-.08-3.75c-1.77-2.74-4.91-.78-4.91-.78s-1-3.58-4.14-2.76a3.51 3.51 0 0 0-2.59 2.7 6.07 6.07 0 0 0 .81 4.45c1.27 2.49 2.09 3.84 2.29 4.8Z"/>
</svg>
