<svg version="1.1" xmlns="http://www.w3.org/2000/svg" x="0px" y="0px" viewBox="0 0 195.1 62.9" xml:space="preserve">
  <path d="m115.9 22.2-7.6 15.9c-.8 1.7-2.4 2.6-4.5 2.6H85.3c-2.1 0-2.8-1.6-1.9-3.3l7.2-15.1H97l-6.7 13.9c-.2.4 0 .6.4.6h11.1c.7 0 .9-.2 1.1-.7l6.7-13.8c-.1-.1 6.3-.1 6.3-.1zm25.9 0h-17.7c-2.3 0-3.6 1-4.5 2.9l-5.8 12c-1 2 0 3.6 2.1 3.6h18c2.1 0 3.7-.9 4.5-2.7l.6-1.1h-18c-.4 0-.5-.2-.3-.6l1-2.2c.2-.5.6-.7 1-.7h14.8c2.3 0 3.7-1.1 4.3-2.4l2.3-4.8c.3-.8.5-1.3.5-1.8.1-1.4-1.1-2.2-2.8-2.2zm-3.8 4.4-1.1 2.4c-.2.4-.5.6-1 .6h-12l1.4-3c.2-.4.5-.6 1-.6h11.3c.4 0 .5.4.4.6zm30.1 0-1.2 2.5c-.2.5-.5.6-1 .6h-12.3l1.5-3c.2-.5.5-.7 1.1-.7h11.5c.4 0 .5.4.4.6zm6.3-.5c.3-.8.5-1.3.5-1.8 0-1.4-1.1-2.1-2.9-2.1h-18.1c-2.3 0-3.6 1-4.5 2.9L142 40.7h6.3l3.1-6.5c.2-.5.6-.7 1-.7h7.8c.5 0 .8.1.9.6l2.6 6.6h6.1l-2.9-7.3h.5c2.4-.2 3.9-1.2 4.8-2.9l2.2-4.4zm-93.1-3.9H62.9c-2 0-3.4.8-4.2 2.7l-.6 1.2h18.4c.5 0 .6.3.4.6l-1 2c-.2.5-.5.7-1 .7H59.3c-1.7 0-3.2.9-3.9 2.4l-2.6 5.4c-.9 2 0 3.5 2.1 3.5h18.6c2 0 3.6-.9 4.5-2.6l5.8-12c.3-.8.5-1.3.5-1.8-.2-1.3-1.3-2.1-3-2.1zm-8.9 14c-.2.4-.4.6-1 .6H59.8c-.3 0-.5-.2-.3-.6l1.2-2.6c.2-.5.5-.6 1-.6H74l-1.6 3.2zm-21.3-14H32c-1.7 0-3.3.7-4.1 2.5l-7.7 16h23.2c2.3 0 3.7-1 4.4-2.5l1.6-3.3c.3-.6.5-1 .5-1.6 0-1.2-.9-1.9-2-2.1 0 0 .7 0 1.3-.2 1.5-.4 2.4-1.1 3.1-2.5l1.1-2.4c.3-.8.5-1.3.5-1.8 0-1.3-1.1-2.1-2.8-2.1zm-8.7 14c-.2.4-.5.6-1 .6H29.1c-.4 0-.5-.3-.4-.6l1.2-2.6c.2-.4.5-.6 1-.6h12.9l-1.4 3.2zm4.7-9.7-1 2.1c-.2.4-.5.6-1 .6h-13l1.3-2.8c.2-.4.5-.6 1-.6h12.3c.5.1.5.4.4.7z" fill="#0a2a4f"/>
</svg>
