<?xml version="1.0" encoding="utf-8"?>
<!-- Generator: Adobe Illustrator 24.0.0, SVG Export Plug-In . SVG Version: 6.00 Build 0)  -->
<svg version="1.1" id="Lager_1" xmlns="http://www.w3.org/2000/svg" xmlns:xlink="http://www.w3.org/1999/xlink" x="0px" y="0px"
	 width="320.5px" height="60.8px" viewBox="0 0 320.5 60.8" enable-background="new 0 0 320.5 60.8" xml:space="preserve" fill="#0A2A4F">
<g>
	<path d="M34.1,6.5H23.6C11,6.5,4.8,9.6,2.6,22.9L0.5,36.5C-1.7,49.9,3.5,53,16.1,53h16.6c14,0,17.9-6,19.1-13.7l0.6-4.3H38.5
		c-0.9,5.7-2.9,6.3-9.2,6.3h-9c-6.6,0-7.6-2.5-6.5-9.1l0.8-4.9c0.9-5.7,2.8-9.1,10.2-9.1H34c3.7,0,5.9,0.8,5.9,3.3v0.2H54v-0.2
		c0.1-1.3,0.1-2.2,0.1-3.3C54.5,9.2,50.8,6.5,34.1,6.5"/>
	<path d="M94.8,22.9l-0.2,1.5c-0.5,3.4-1.9,4.9-5.2,4.9H71.7L73.4,18h16.7C93.8,18,95.4,18.8,94.8,22.9 M99.5,34.8
		c5.8-1.7,7.5-5.3,8.5-11.6l0.4-3c1.3-8.4-0.4-13.9-9.6-13.9H62.5l-7,46.7h12.6l1.8-12h16.8c3.7,0,4.7,1.6,4,6.5l-0.9,5.6h13.5
		l1.2-7.9C105.6,37.5,102.9,35.6,99.5,34.8"/>
</g>
<polygon points="212.1,6.3 208.2,18 221.4,18 216.1,53.1 228.1,53.1 233.4,18 249.8,18 253.8,6.3 "/>
<polygon points="168.1,53.1 180.1,53.1 182.2,38.4 198.4,38.4 202.3,27.6 183.8,27.6 185.3,18 203.1,18 207.1,6.5 175.1,6.4 "/>
<path d="M130.3,34.8l10.2-17.5l5.1,17.5H130.3z M134.4,6.4l-28.2,46.7h13.4l4.8-8.3h24.3l2.5,8.3h13.3L150,6.4H134.4z"/>
<g>
	<path d="M284.7,7c-0.6,3.2-3.7,5.2-6.9,4.6c-3.1-0.6-5.2-3.7-4.6-6.9s3.7-5.2,6.9-4.6S285.4,3.8,284.7,7"/>
	<path d="M302.2,22c-0.6,3.2-3.7,5.2-6.9,4.6c-3.2-0.6-5.2-3.7-4.6-6.9s3.7-5.2,6.9-4.6S302.9,18.8,302.2,22"/>
	<path d="M320.4,37c-0.6,3.2-3.7,5.2-6.9,4.6c-3.2-0.6-5.2-3.7-4.6-6.9s3.7-5.2,6.9-4.6C318.9,30.8,321,33.9,320.4,37"/>
	<path d="M302.8,44.6c-0.9,4.4-5.1,7.2-9.5,6.3s-7.2-5.1-6.3-9.5c0.9-4.4,5.1-7.2,9.5-6.3C300.8,36,303.7,40.2,302.8,44.6"/>
	<path d="M283.4,28.3c-0.9,4.4-5.1,7.2-9.5,6.3s-7.2-5.1-6.3-9.5c0.9-4.4,5.1-7.2,9.5-6.3S284.3,23.9,283.4,28.3"/>
	<path d="M280.7,53.1c-1,5.2-6.1,8.5-11.3,7.5c-5.2-1-8.5-6.1-7.5-11.2c1-5.2,6.1-8.5,11.2-7.5C278.4,42.9,281.8,48,280.7,53.1"/>
</g>
</svg>
