<svg version="1.1" id="Lager_1" xmlns="http://www.w3.org/2000/svg" x="0px" y="0px" viewBox="0 0 320.5 60.8" xml:space="preserve">
  <g fill="#0A2A4F">
    <path d="M34.1 6.5H23.6C11 6.5 4.8 9.6 2.6 22.9L.5 36.5C-1.7 49.9 3.5 53 16.1 53h16.6c14 0 17.9-6 19.1-13.7l.6-4.3H38.5c-.9 5.7-2.9 6.3-9.2 6.3h-9c-6.6 0-7.6-2.5-6.5-9.1l.8-4.9c.9-5.7 2.8-9.1 10.2-9.1H34c3.7 0 5.9.8 5.9 3.3v.2H54v-.2l.1-3.3c.4-9-3.3-11.7-20-11.7M94.8 22.9l-.2 1.5c-.5 3.4-1.9 4.9-5.2 4.9H71.7L73.4 18h16.7c3.7 0 5.3.8 4.7 4.9m4.7 11.9c5.8-1.7 7.5-5.3 8.5-11.6l.4-3c1.3-8.4-.4-13.9-9.6-13.9H62.5l-7 46.7h12.6l1.8-12h16.8c3.7 0 4.7 1.6 4 6.5l-.9 5.6h13.5l1.2-7.9c1.1-7.7-1.6-9.6-5-10.4"/>
  </g>
  <path fill="#0A2A4F" d="M212.1 6.3 208.2 18h13.2l-5.3 35.1h12l5.3-35.1h16.4l4-11.7zM168.1 53.1h12l2.1-14.7h16.2l3.9-10.8h-18.5l1.5-9.6h17.8l4-11.5-32-.1zM130.3 34.8l10.2-17.5 5.1 17.5h-15.3zm4.1-28.4-28.2 46.7h13.4l4.8-8.3h24.3l2.5 8.3h13.3L150 6.4h-15.6z"/>
  <g fill="#0A2A4F">
    <path d="M284.7 7a5.8 5.8 0 0 1-6.9 4.6c-3.1-.6-5.2-3.7-4.6-6.9s3.7-5.2 6.9-4.6 5.3 3.7 4.6 6.9M302.2 22a5.8 5.8 0 0 1-6.9 4.6c-3.2-.6-5.2-3.7-4.6-6.9s3.7-5.2 6.9-4.6 5.3 3.7 4.6 6.9M320.4 37a5.8 5.8 0 0 1-6.9 4.6c-3.2-.6-5.2-3.7-4.6-6.9s3.7-5.2 6.9-4.6a6 6 0 0 1 4.6 6.9M302.8 44.6c-.9 4.4-5.1 7.2-9.5 6.3s-7.2-5.1-6.3-9.5a8 8 0 0 1 9.5-6.3 8 8 0 0 1 6.3 9.5M283.4 28.3c-.9 4.4-5.1 7.2-9.5 6.3s-7.2-5.1-6.3-9.5c.9-4.4 5.1-7.2 9.5-6.3s7.2 5.1 6.3 9.5M280.7 53.1a9.6 9.6 0 0 1-18.8-3.7c1-5.2 6.1-8.5 11.2-7.5 5.3 1 8.7 6.1 7.6 11.2"/>
  </g>
</svg>
