<svg xmlns="http://www.w3.org/2000/svg" x="0px" y="0px" viewBox="0 0 181.32 176.31" xml:space="preserve">
  <style>
    .st0{fill:#003a5d}
  </style>
  <g id="artwork">
    <path class="st0" d="M39.58 118.53V106.4c0-4.52-1.8-6.86-5.65-6.86-3.22 0-5.65 1.8-7.61 3.97V89.28h-.5l-6.15 2.09v.46l2.89.98v25.72c0 1.63-.67 1.97-2.89 2.09v1.09h9.54v-1.09c-2.22-.13-2.89-.46-2.89-2.09v-14.02c1.59-1.38 3.64-2.55 5.77-2.55 2.47 0 3.72 1.3 3.72 4.39v12.17c0 1.63-.67 1.97-2.89 2.09v1.09h9.54v-1.09c-2.21-.11-2.88-.44-2.88-2.08zM54.26 119.33c-4.35 0-7.7-3.85-7.41-10.63h13.89v-.88c0-4.69-2.72-8.28-7.87-8.28-5.4 0-9.41 5.06-9.41 11.92 0 5.86 3.39 10.67 9.33 10.67a8.18 8.18 0 0 0 8.24-6.28l-.5-.25c-1.45 2.31-3.25 3.73-6.27 3.73zm-1.71-18.45c3.26 0 4.56 2.85 4.56 6.61H46.99c.41-3.72 2.34-6.61 5.56-6.61zM94.63 118.53V106.4c0-4.52-1.59-6.86-5.36-6.86-3.31 0-5.65 1.92-7.61 4.1-.59-2.76-2.18-4.1-5.1-4.1-3.31 0-5.4 1.8-7.36 3.97v-3.97h-.5l-6.16 2.09v.46l2.89.98v15.46c0 1.63-.67 1.97-2.89 2.09v1.09h9.54v-1.09c-2.22-.13-2.89-.46-2.89-2.09v-14.02c1.59-1.38 3.31-2.55 5.44-2.55 2.47 0 3.51 1.38 3.51 4.39v12.17c0 1.63-.67 1.97-2.89 2.09v1.09h9.54v-1.09c-2.22-.13-2.89-.46-2.89-2.09V104.5c1.59-1.38 3.31-2.55 5.44-2.55 2.47 0 3.51 1.38 3.51 4.39v12.17c0 1.63-.67 1.97-2.89 2.09v1.09h9.54v-1.09c-2.2-.1-2.87-.43-2.87-2.07zM113.71 92.29c0-1.97-1.51-3.01-4.39-3.01-4.52 0-7.4 2.8-7.4 7.95v2.48l-3.1 1.26v.59h3.1v16.99c0 1.63-.67 1.97-2.89 2.09v1.09h10.38v-1.09c-2.76-.13-3.72-.46-3.72-2.09v-16.99h5v-1.59h-5V94.9c0-3.01 1-4.6 2.76-4.6 1.46 0 2.01 1.09 2.01 2.68 0 .59-.04 1.17-.13 1.58 2.46.39 3.38-1.3 3.38-2.27zM119.36 105.48v-5.94h-.5l-6.16 2.09v.46l2.89.98v15.46c0 1.63-.67 1.97-2.89 2.09v1.09h10.38v-1.09c-2.76-.13-3.72-.46-3.72-2.09V106.4c2.34-2.85 4.1-3.05 6.65-3.05h.59v-3.14c-.29-.38-.84-.67-1.59-.67-2.34 0-3.34 1.67-5.65 5.94zM130.41 93.84a2.67 2.67 0 1 0 5.32 0 2.67 2.67 0 1 0-5.32 0zM135.14 118.53V99.54h-.5l-6.15 2.09v.46l2.89.98v15.46c0 1.63-.67 1.97-2.89 2.09v1.09h9.54v-1.09c-2.22-.12-2.89-.45-2.89-2.09zM160.31 119.58c-1.88-.21-1.97-.5-1.97-1.92V89.28h-.5l-6.14 2.09v.46l2.88.98v8.4a7.12 7.12 0 0 0-4.89-1.67c-5.82 0-10.21 4.73-10.21 12.34 0 5.9 3.22 10.25 8.41 10.25 3.01 0 5.02-1.67 6.69-3.85v3.85h.62l6.2-1.55v-.88l-1.09-.12zm-5.73-2.26a6.18 6.18 0 0 1-4.81 2.05c-4.44 0-6.74-4.06-6.74-9.16 0-5.69 2.59-9.5 6.65-9.5 2.85 0 4.89 2.34 4.89 6.15v10.46zM90.85 83.35a33.56 33.56 0 0 0 33.52-33.52 33.56 33.56 0 0 0-33.52-33.52 33.56 33.56 0 0 0-33.52 33.52 33.56 33.56 0 0 0 33.52 33.52zm0-65.03a31.55 31.55 0 0 1 31.51 31.51 31.55 31.55 0 0 1-31.51 31.51 31.55 31.55 0 0 1-31.51-31.51 31.55 31.55 0 0 1 31.51-31.51z"/>
    <path class="st0" d="M90.85 83.48a33.68 33.68 0 0 1-33.64-33.64A33.68 33.68 0 0 1 90.85 16.2a33.68 33.68 0 0 1 33.64 33.64 33.68 33.68 0 0 1-33.64 33.64zm0-67.04a33.43 33.43 0 0 0-33.39 33.39 33.43 33.43 0 0 0 33.39 33.39 33.43 33.43 0 0 0 33.39-33.39 33.43 33.43 0 0 0-33.39-33.39zm0 65.03a31.68 31.68 0 0 1-31.64-31.63A31.68 31.68 0 0 1 90.85 18.2a31.67 31.67 0 0 1 31.63 31.64 31.67 31.67 0 0 1-31.63 31.63zm0-63.02a31.42 31.42 0 0 0-31.39 31.39 31.42 31.42 0 0 0 31.39 31.38 31.42 31.42 0 0 0 31.38-31.38 31.42 31.42 0 0 0-31.38-31.39z"/>
    <g>
      <path class="st0" d="M76.26 69.72h13.17V59.33l-.65-.24a5.9 5.9 0 0 1-3.81-5.49 5.89 5.89 0 0 1 11.76 0 5.9 5.9 0 0 1-3.78 5.48l-.64.25v10.4h13.14c3.56 0 6.46-2.9 6.46-6.46v-18.7c0-1.73-.67-3.35-1.89-4.57L95.41 25.41a6.41 6.41 0 0 0-4.57-1.89c-1.73 0-3.35.67-4.57 1.89L71.69 40a6.41 6.41 0 0 0-1.89 4.57v18.68a6.46 6.46 0 0 0 6.46 6.47zM71.8 44.57c0-1.19.46-2.31 1.3-3.15l14.6-14.59a4.42 4.42 0 0 1 3.15-1.3c1.19 0 2.31.46 3.15 1.3l14.59 14.59c.84.84 1.3 1.96 1.3 3.15v18.68c0 2.46-2 4.45-4.45 4.45H94.3v-7.04a7.89 7.89 0 1 0-11.34-7.08 7.9 7.9 0 0 0 4.46 7.09v7.03H76.26c-2.46 0-4.45-2-4.45-4.45V44.57z"/>
      <path class="st0" d="M105.44 69.84H92.17V59.23l.73-.28a5.76 5.76 0 1 0-7.8-5.36c0 2.38 1.5 4.54 3.73 5.38l.73.28v10.59l-1.13.01H76.26a6.6 6.6 0 0 1-6.59-6.59V44.57c0-1.76.69-3.41 1.93-4.66l14.59-14.59a6.56 6.56 0 0 1 9.32 0l14.59 14.59a6.56 6.56 0 0 1 1.93 4.66v18.68a6.6 6.6 0 0 1-6.59 6.59zm-13.02-.25h13.01a6.35 6.35 0 0 0 6.34-6.34V44.57a6.3 6.3 0 0 0-1.86-4.48L95.33 25.5a6.3 6.3 0 0 0-8.96 0l-14.6 14.59a6.3 6.3 0 0 0-1.86 4.48v18.68a6.35 6.35 0 0 0 6.34 6.34H89.3V59.41l-.57-.21a6 6 0 1 1 4.25-.01l-.56.22v10.18zm13.02-1.76H94.18v-7.25l.07-.03a7.77 7.77 0 1 0-11.17-6.96 7.8 7.8 0 0 0 4.39 6.98l.07.03v7.23H76.26a4.59 4.59 0 0 1-4.58-4.58V44.57c0-1.22.48-2.37 1.34-3.24l14.59-14.59a4.55 4.55 0 0 1 6.48 0l14.59 14.59a4.55 4.55 0 0 1 1.34 3.24v18.68a4.6 4.6 0 0 1-4.58 4.58zm-11.01-.25h11.01a4.33 4.33 0 0 0 4.33-4.33V44.57c0-1.16-.45-2.24-1.27-3.06L93.91 26.92a4.29 4.29 0 0 0-6.12 0l-14.6 14.59a4.29 4.29 0 0 0-1.27 3.06v18.68a4.33 4.33 0 0 0 4.33 4.33h11.04v-6.83a8.01 8.01 0 1 1 7.14-.02v6.85z"/>
    </g>
  </g>
</svg>
