<svg version="1.1" xmlns="http://www.w3.org/2000/svg" x="0px" y="0px" viewBox="0 0 137.5 34.6" xml:space="preserve">
  <path fill="#0A2A4F" d="M43.1 11.6h-3.7l-4.7 4.6.6-4.6h-3.5l-1.3 11.3H34l.6-4.9 2.5 4.9h4l-3.2-6 5.2-5.3zm7.3 2.2h-4.7c-1.2 0-2.5.2-2.7 2.1l-.6 5c-.1.7 0 1.2.3 1.5.3.4.9.5 1.8.5h4.7c1.6 0 2.5-.6 2.7-2.1l.6-5c.1-.7 0-1.2-.3-1.5-.4-.3-.9-.5-1.8-.5zm-1.6 3-.4 3.2c-.1.5-.2 1.3-1.4 1.3h-1.3l.6-4.8c0-.3.2-1.2 1.3-1.2H49l-.2 1.5zm12.9-3h-4.6c-1.8 0-2.6.6-2.8 2.1l-.6 5c-.1.7 0 1.2.3 1.5.3.4.9.5 1.8.5h4.8c1.6 0 2.4-.6 2.6-2.1l.1-.5h-3.5c-.2.8-.9.9-1.3.9h-1.2l.2-2.1h6l.4-3.3c.1-.7 0-1.2-.3-1.5a3 3 0 0 0-1.9-.5zm-1.6 3.8h-2.5l.1-1.1c.1-.8.6-1.2 1.3-1.2h1.3l-.2 2.3zm52.5-3.8H108c-1.8 0-2.6.6-2.8 2.1l-.6 5c-.1.7 0 1.2.3 1.5.3.4.9.5 1.8.5h4.8c1.6 0 2.4-.6 2.6-2.1l.1-.5h-3.5c-.2.8-.9.9-1.3.9h-1.2l.2-2.1h6l.4-3.3c.1-.7 0-1.2-.3-1.5a3 3 0 0 0-1.9-.5zm-1.6 3.8h-2.5l.1-1.1c.1-.8.6-1.2 1.3-1.2h1.3l-.2 2.3zm-37.8-3.8h-.8c-1.1 0-1.8.5-1.8.5l-1.3 1 .2-1.6H66l-1.1 9.1h3.5l.7-6 1.3-1c.5-.4 1.4-.5 1.4-.5l-.2 1.4-.7 6.1h3.5l.8-7.1c.1-.7 0-1.2-.3-1.6-.3-.1-.8-.3-1.7-.3zm3 9.1h3.5l1.1-9.1h-3.5l-1.1 9.1zm6.3-7-.6 4.9c-.1.7 0 1.2.3 1.5s.8.6 1.6.6h1.3c1.8 0 2.7-1.7 2.7-1.7l-.4 3h-5.9l-.2 1.8h6.8c1.3 0 2.6-.2 2.8-2l1.2-10.2h-7.2c-1.5 0-2.3.6-2.4 2.1zm3.4.6c.1-.6.5-1.2 1.4-1.2h1.2l-.2 1.5-.4 3.1s-.7 1.5-2.3 1.5h-.4l.7-4.9zm30.6-.6-.6 4.9c-.1.7 0 1.2.3 1.5s.8.6 1.6.6h1.3c1.8 0 2.7-1.7 2.7-1.7l-.4 3h-5.9l-.2 1.7h6.8c1.3 0 2.6-.2 2.8-2l1.2-10.2H119c-1.5.1-2.3.7-2.5 2.2zm3.4.6c.1-.6.5-1.2 1.4-1.2h1.2l-.2 1.5-.4 3.1s-.7 1.5-2.3 1.5h-.4l.7-4.9zm10.4-2.7c-1.5 0-2.3.6-2.5 2.1l-.6 4.9c-.1.7 0 1.2.3 1.5s.8.6 1.6.6h1.3c1.8 0 2.7-1.7 2.7-1.7l-.4 3h-5.9l-.2 1.7h6.8c1.3 0 2.6-.2 2.8-2l1.2-10.2h-7.1v.1zm3.4 2.9-.4 3.1s-.7 1.5-2.3 1.5h-.4l.6-4.8c.1-.6.5-1.2 1.4-1.2h1.2l-.1 1.4zm-32.3-2.9h-5c-1.5 0-2.3.6-2.5 2.1l-.2 1.2c-.1.8 0 1.3.3 1.6.4.5 1.3.5 2.1.5h3.3l-.1.5c0 .3-.2 1.5-1.5 1.5h-1.2l.1-.9h-3.5v.5c-.1.7 0 1.2.3 1.5.4.5 1.2.6 1.9.6h4.7c1.7 0 2.5-.7 2.7-2.1l.1-1.2c.1-.6 0-1.1-.3-1.4-.4-.5-1.3-.6-2.1-.6h-3.4l.1-1c.1-.9.8-1.3 1.4-1.3h1.2l-.1 1.2h3.5l.1-.7c.1-.7 0-1.2-.3-1.5-.3-.4-.9-.5-1.6-.5zM18.8 8.9c-3.1-1.2-5.3-1.8-6.4-1.8S9.2 7.7 6 8.9c-1.8.6-3.4 1.3-4 1.6l-.3.1v.4c.2 1.3.5 4 1.2 6.7 1.1 4.1 3.5 10 9.2 14.7l.3.3.3-.3a28.9 28.9 0 0 0 9.2-14.7c.7-2.7 1.1-5.4 1.2-6.7v-.4l-.3-.1c-.6-.3-2.2-1-4-1.6zm2.6 8.7a28.2 28.2 0 0 1-9 14.5 28.2 28.2 0 0 1-9-14.5c-.7-2.7-1.1-5.4-1.2-6.7l4-1.6c3.8-1.5 5.5-1.8 6.2-1.8s2.4.3 6.2 1.8l4 1.6c-.1 1.3-.5 4-1.2 6.7zm-9-9.4c-.8 0-2.5.5-4.3 1.1l4.3 1.3 4.3-1.3a14 14 0 0 0-4.3-1.1zm0 2.4-6.1 1.7 6.1 1.7 6.1-1.7 3.2.9.3-1.9-3.5 1-6.1-1.7zm-9.6.7.3 1.9 3.2-.9-3.5-1zm9.6 2.7-5.6 1.7-3.5-1.1.4 2 3-.9 5.6 1.7 5.6-1.7 3 .9.4-2-3.3 1.1-5.6-1.7zm0 3.5-5 1.7-3.2-1.1.6 2 2.6-.9 5 1.7 5-1.7 2.6.9c.2-.7.5-1.3.6-2l-3.2 1.1-5-1.7zm-4.2 5.1 4.2 1.7 4.2-1.7-4.2-1.7-4.2 1.7zm-2.9-1.2.9 2 2-.8-2.9-1.2zm13.3 2c.3-.7.7-1.3.9-2l-2.9 1.2 2 .8zm-6.2 4.4 3.1-1.7-3.1-1.7-3.1 1.7 3.1 1.7zm4.2-1.2.9-1.3-2 .8 1.1.5zm-8.4 0 1.1-.5-2-.8.9 1.3zm1.9 2.5 2.1 2.1.2.1.2-.1 2.1-2.1-2.3-1.3-2.3 1.3zm.2-24.2-.3.3c.3.3.7.5 1.1.5.4 0 .8-.1 1.1-.4v.9h.5v-.9c.3.3.7.4 1.1.4.4 0 .8-.2 1.1-.5l-.3-.3c-.4.4-1.1.4-1.5 0s-.4-1.1 0-1.5 1.1-.4 1.5 0l.3-.4c-.6-.6-1.6-.6-2.2 0v-.9h-.5V3c-.6-.6-1.6-.6-2.2 0l.3.3c.4-.4 1.1-.4 1.5 0s.4 1.1 0 1.5a1 1 0 0 1-1.5.1zm14.5 2.7-1.6-1.4A38.8 38.8 0 0 0 12.7.1l-.3-.1-.3.1a40.4 40.4 0 0 0-12 7.4l-.1.1v.5s0 4.3 1.5 10.1a30.3 30.3 0 0 0 10.8 16.5h.1l.5-.4c6.4-5 9.1-11.5 10.3-16.1 1.5-5.7 1.5-10 1.5-10.1l.1-.5zM23 18a29.9 29.9 0 0 1-10.2 15.9l-.4.3-.4-.3A29 29 0 0 1 1.9 18C.4 12.3.4 8.1.4 8v-.3l1.5-1.3c4.9-4 10.4-6 10.4-6.1l.2-.1.2.1c.1 0 5.6 2 10.4 6.1l1.5 1.3V8c-.1.1-.1 4.4-1.6 10z"/>
</svg>
