<svg id="Lager_1" data-name="Lager 1" xmlns="http://www.w3.org/2000/svg" viewBox="0 0 428.66 102.91" fill="#0A2A4F"><path d="M310.42,91.45c0,6.19-4.68,10.64-11.23,10.64s-11.1-4.45-11.1-10.64,4.56-10.52,11.1-10.52S310.42,85.37,310.42,91.45Z"/><path d="M283.5,64.89a9.93,9.93,0,0,0-8.42-4.09c-5.83,0-9.89,4-9.89,9.38a9.06,9.06,0,0,0,4.56,8.13,21.53,21.53,0,0,1-8.65,1.79c-8.25,0-13.42-4.7-13.42-18.13V44.17a35.07,35.07,0,0,1,11.48-1.94c9.23,0,11.66,3.89,11.66,3.89s4.69-4.21,4.69-12.31c0-9.7-4.38-14.88-13.11-14.88-5.34,0-10.35,2.26-14.72,5.18V0L218.23,3.72V63.11a65.35,65.35,0,0,0,1,11.83c-.82,2.73-2.9,5.82-8.15,5.8-5.66,0-6.79-2.91-6.79-8.57V46.27c0-18.6-9.71-29-31.71-29S135.36,25.9,135,40.77a12.3,12.3,0,0,0,6,10.85c4-7,13.11-12.46,23.63-12.46,8.41,0,11.16,3.4,11.16,10C149,49.19,131,56.79,131,78.47c0,.08,0,.16,0,.24a9.24,9.24,0,0,1-6.09,2.19c-4.85,0-7.12-2.59-7.12-7.12,0-10.2,2.75-22.16,2.75-32.19,0-15.38-7.28-25.08-22.49-25.08-17.47,0-23.78,16.34-23.78,16.34-1.78-9.23-8.1-16.34-20.39-16.34-17.47,0-24.27,16.82-24.27,16.82V17.48L0,21.19v79.13H29.77V53.23c0-8.74,3.72-12.94,9.22-12.94,3.88,0,6.15,2.27,6.15,7.11v52.92H74.91V53.23c0-8.74,4.21-12.94,9.71-12.94,4,0,6.31,2.1,6.31,7.11,0,9.07-.13,19.43-.13,28.32,0,16.51,4.43,26.37,23,26.37,8.8,0,16.55-3.71,21.19-9.3a20.48,20.48,0,0,0,17.74,9.3c19.25,0,25.23-16,25.23-16,2.43,7.93,8.9,16,23,16,11.2,0,19.83-6,22.9-14.21,5.65,9.8,15.32,14.54,27.61,14.54,22.65,0,34.62-14.23,34.62-28.31C286,69,284.29,66,283.5,64.89ZM176,67.8C176,74.91,172.74,82,163.52,82c-4.21,0-6.15-3.23-6.15-7,0-5.82,4.37-12.13,18.6-12.78Z"/><path d="M363.68,53.11a11,11,0,0,1-5.15,9.23c-1-3-5.25-7.13-9.46-7.13-2.69,0-3.63,1.53-3.63,3.17,0,7,20.34,7.12,20.34,24.07,0,11.23-10.17,20.46-26.42,20.46-15.78,0-24.08-9.59-24.08-19.17,0-7.26,4.21-10.76,10.64-10.76a15.39,15.39,0,0,1,10.17,4.22s-3.39,2.21-3.39,6.07c0,4.09,2.34,6.43,6,6.43A5.49,5.49,0,0,0,344.5,84C344.5,72.87,322,72.51,322,57.44,322,46.68,329.84,40,343.74,40,357.07,40,363.68,45.86,363.68,53.11Z"/><path d="M428.66,81.86c0,11-13.2,20.92-31.56,20.92-17.88,0-27.23-12-27.23-28.86S380,40.6,399.79,40.6c13.22,0,19.29,7.83,19.29,18,0,12.73-10.87,21.85-26.77,25.35,2.46,3.17,6.08,4.69,10.64,4.69,15,0,22-10.29,23.26-13.57C426.21,75.08,428.66,77,428.66,81.86ZM389,71.82v1.51c10.87-2.34,14-8,14-12.62s-2.46-5.85-4.91-5.85C393.13,54.86,389,62.34,389,71.82Z"/></svg>