<svg version="1.1" id="Lager_1" xmlns="http://www.w3.org/2000/svg" x="0px" y="0px" viewBox="0 0 400 153.7" xml:space="preserve">
  <path fill="#0A2A4F" d="M351 100h-10.6v52.4H353V131l.2-7.2c.1-2.3.6-4.6 1.5-6.8.8-1.8 2-3.5 3.5-4.8a8.6 8.6 0 0 1 5.5-1.9c3.3 0 5.6.9 6.9 2.6 1.3 2.2 2 4.7 1.8 7.2v32.2H385v-35c0-2.6-.4-5.1-1.2-7.5a16.3 16.3 0 0 0-9-9.8 20.3 20.3 0 0 0-16.3.6 14.5 14.5 0 0 0-6.6 6.1l-.9-6.7zm-201.9 0h-10.6v52.4h12.6V131l.2-7.2c.1-2.3.6-4.6 1.5-6.8.8-1.8 2-3.5 3.5-4.8a8.6 8.6 0 0 1 5.5-1.9c3.3 0 5.6.9 6.9 2.6 1.3 2.2 2 4.7 1.8 7.2v32.2h12.6v-35c0-2.6-.4-5.1-1.2-7.5a15.7 15.7 0 0 0-9.1-9.8 20.3 20.3 0 0 0-16.3.6 14.5 14.5 0 0 0-6.6 6.1l-.8-6.7zm-53.8 37c-.1-1.9.8-3.8 2.3-4.9a10 10 0 0 1 5.2-1.9l13.3-1v2.4c0 3.9-1.2 6.9-3.7 8.9a15.4 15.4 0 0 1-9.7 3.1c-1.9 0-3.7-.6-5.2-1.8a5.5 5.5 0 0 1-2.2-4.8m-11-6.4a16.7 16.7 0 0 0-.1 12.8c.8 2 2 3.8 3.6 5.2a17 17 0 0 0 5.9 3.6 23.4 23.4 0 0 0 18.2-.9c2.5-1.2 4.6-3.2 6-5.5a8 8 0 0 0 2.5 5.1c1.7 1.6 4 2.4 6.4 2.2a14 14 0 0 0 3.5-.4c.9-.3 1.9-.6 2.8-1.1v-9.3l-.5.1-1.1.1c-.8.1-1.7-.2-2.3-.8a4 4 0 0 1-.6-2.6V120l-.2-5.3a18 18 0 0 0-1.3-5.2c-1.3-3.7-4-6.7-7.6-8.3a31 31 0 0 0-27.1 1.7 15 15 0 0 0-4.7 5.3c-1.2 2.4-1.9 5-2.1 7.7h12.1c0-2.2 1-4.2 2.7-5.6 2-1.4 4.5-2.1 6.9-1.9 3.6 0 5.9.8 7.1 2.3a9.9 9.9 0 0 1 1.8 6v3.2l-15.4 1.1c-2.4.2-4.7.7-7 1.5-2.1.7-4 1.8-5.6 3.3-1.7 1.2-3 2.9-3.9 4.8m-67.4-104a7.1 7.1 0 0 1-2-5.4c0-1.2.2-2.3.6-3.4a12 12 0 0 1 1.8-2.6c1.5-1.5 3.3-2.6 5.4-3.1a20.4 20.4 0 0 1 12.2.2 11 11 0 0 1 8.1 9.9h13.2c0-2.9-.7-5.8-2.1-8.4a23.8 23.8 0 0 0-14-12 34.9 34.9 0 0 0-23 .2A25.2 25.2 0 0 0 8 7.6c-1.9 1.8-3.4 4-4.5 6.3a16.2 16.2 0 0 0-1.7 7.8c0 2.7.5 5.4 1.5 7.9.9 2.2 2.2 4.2 3.9 5.9s3.6 3 5.7 4c2.2 1 4.6 1.7 7 2.1 2.4.4 5 .7 7.9.9 2.7.2 5.4.5 8 1a13 13 0 0 1 5.9 2.6 7 7 0 0 1 2.5 5.9c.1 1.4-.2 2.8-.8 4.1a11.3 11.3 0 0 1-7.3 5.8c-4.4 1.1-9 1.1-13.5.1a11.6 11.6 0 0 1-8.2-7c-.7-1.5-1-3.2-1-4.9H0c0 3.3.7 6.5 2.1 9.4 1.3 2.7 3.1 5.2 5.3 7.2 2.9 2.6 6.3 4.6 10 5.7a39.7 39.7 0 0 0 23.8-.1 23.2 23.2 0 0 0 14.3-12.1c1.2-2.7 1.7-5.7 1.7-8.7a20 20 0 0 0-12-18.6c-2.4-1.1-5-1.8-7.6-2.2l-7.8-.9-7.7-.9a8.2 8.2 0 0 1-5.2-2.3m60.2 54.3H60.5l-18.8 50.9-18.8-50.9H5.3v71.5h12.6v-51.6l18.4 50.6H46l18.6-50v51h12.6l-.1-71.5zm18.8-39.6H73.2c0-1.5.3-3.1.7-4.5a11.2 11.2 0 0 1 5.6-6.5c1.6-.8 3.4-1.1 5.1-1.1 1.6 0 3.2.2 4.7.8 1.2.5 2.4 1.2 3.3 2.2 2.1 2.2 3.2 5.3 3.3 9.1m12.5 7 .1-1.3c0-3.2-.3-6.3-.8-9.4-.6-3.2-1.8-6.2-3.6-8.9-2-3.2-4.9-5.7-8.3-7.3a25.5 25.5 0 0 0-20.5-.6 21.7 21.7 0 0 0-7.1 4.8 24.5 24.5 0 0 0-5.7 9.2 35.9 35.9 0 0 0 .2 23.5c2.3 6.2 7 11.3 13.1 13.9 3 1.2 6.2 1.8 9.4 1.8 3.3 0 6.6-.6 9.7-1.7a18.8 18.8 0 0 0 10.9-10.2c.8-1.6 1.4-3.3 1.6-5.1H95.1a9.2 9.2 0 0 1-5.7 6.4c-1.5.4-3 .6-4.5.6-1.6 0-3.1-.3-4.5-1a12 12 0 0 1-6.2-6.8 16 16 0 0 1-1-5.8h35.1l.1-2.1zm2.4 40.7c-1.5 1.5-4.4 2.5-7.6.2l-.1-.1c-2.3-3.2-1.4-6.1.2-7.6s4.4-2.5 7.5-.2l.2.2c2.2 3.1 1.3 6-.2 7.5m2.6-9.4-.7-.7c-4.4-3.2-9-2.1-11.5.5s-3.7 7.1-.5 11.5l.7.7a9.5 9.5 0 0 0 5.6 1.9c2.2 0 4.3-.9 5.9-2.4a8.7 8.7 0 0 0 .5-11.5m63.2-6.8h12.5V37.4c0-5.5-1.4-9.9-4.3-13.3S177.7 19 172 19c-3.3-.1-6.5.7-9.4 2.2a16.4 16.4 0 0 0-6.4 6.4 15.3 15.3 0 0 0-5.8-6.3c-2.8-1.6-6-2.4-9.3-2.3a16.6 16.6 0 0 0-15 8.3l-1-7h-10.4v52.5h12.5V44.2c0-1.7.2-3.3.6-4.9.4-1.6 1-3.2 1.9-4.6a10 10 0 0 1 3.2-3.3c1.4-.9 3-1.3 4.6-1.3 3.2 0 5.3.9 6.4 2.7a15 15 0 0 1 1.7 7.5v32.6h12.5V44.2c0-1.7.2-3.3.6-4.9.4-1.6 1-3.2 1.9-4.6a10 10 0 0 1 3.2-3.3c1.4-.9 3-1.3 4.6-1.3 3.2 0 5.3.9 6.4 2.7 1.1 1.8 1.7 4.3 1.7 7.5l.1 32.5zm25.7 27.2c-2.5.8-4.9 2.2-6.9 3.9a15 15 0 0 0-4.4 16.6c.6 1.5 1.4 2.9 2.5 4.1 2.3 2.6 5.3 4.4 8.7 5.1 2.4.5 4.8.9 7.3 1.2 2.5.2 4.9.5 7.3.9 1.4.2 2.8.8 3.8 1.8s1.5 2.3 1.4 3.7c.1 1.2-.3 2.4-1.1 3.4a6 6 0 0 1-2.7 2c-1.1.5-2.3.8-3.5 1a20.6 20.6 0 0 1-8.1-.4c-1.2-.4-2.4-1-3.4-1.8a7.6 7.6 0 0 1-2-2.7 8 8 0 0 1-.8-3.4h-11.8c0 2.4.5 4.7 1.6 6.9 2.4 4.7 6.5 8.3 11.5 9.9a34.7 34.7 0 0 0 19.5.1c3-.9 5.7-2.5 7.9-4.6a15.8 15.8 0 0 0 4.6-11.4 13 13 0 0 0-4-10 19 19 0 0 0-10.3-4.8l-3.2-.5-2.5-.3-2.4-.3-3-.3c-1.4-.2-2.8-.7-4.1-1.4a4 4 0 0 1-2-3.9c0-1.2.4-2.5 1.2-3.4s1.8-1.7 2.9-2.1c.9-.4 1.8-.6 2.7-.7l2.7-.1a10.7 10.7 0 0 1 6.9 2.5c.6.7 1.1 1.4 1.5 2.2.4.8.6 1.8.6 2.7h12c0-2-.4-3.9-1.3-5.7a17.5 17.5 0 0 0-10.7-9.7 28 28 0 0 0-9.1-1.5c-3.4-.3-6.4.1-9.3 1m19.9-68.4c1.5 0 2.9.2 4.3.5V20l-3.9-.3c-3.1 0-6.1.7-8.8 2a12 12 0 0 0-6 6.5l-1.1-7.9H196v52.4h12.7V46.4c-.1-3.8 1.1-7.6 3.4-10.6a12 12 0 0 1 10.1-4.2m36.6-28.7-.9-1.4c-.5-.8-1.5-1-2.3-.5l-.1.1-13.2 9.7c-.8.5-.9 1.6-.4 2.4.5.7 1.5.9 2.3.5l14.1-8.3a2 2 0 0 0 .5-2.5c0 .1 0 0 0 0m4.1 38.4h-22.7c0-1.5.3-3.1.7-4.5a11.2 11.2 0 0 1 5.6-6.5c1.6-.8 3.4-1.1 5.1-1.1 1.6 0 3.2.2 4.7.8 1.2.5 2.4 1.3 3.3 2.2 2.2 2.5 3.4 5.8 3.3 9.1m12.5 7 .1-1.3c0-3.2-.3-6.3-.8-9.4-.6-3.2-1.8-6.2-3.7-8.9-2-3.2-4.9-5.7-8.3-7.3a25.5 25.5 0 0 0-20.5-.6 21.7 21.7 0 0 0-7.1 4.8 24.5 24.5 0 0 0-5.7 9.2 35.9 35.9 0 0 0 .2 23.5c1.3 3.5 3.4 6.6 6 9.2 2.1 2 4.5 3.5 7.1 4.7 3 1.2 6.2 1.8 9.4 1.8 3.3 0 6.6-.6 9.7-1.7a18.8 18.8 0 0 0 10.9-10.2c.8-1.6 1.4-3.3 1.6-5.1h-12.2a9.2 9.2 0 0 1-5.7 6.4c-1.5.4-3 .6-4.5.6-1.6 0-3.1-.3-4.5-1a12 12 0 0 1-6.2-6.8 16 16 0 0 1-1-5.8h35.1l.1-2.1zM250 114.6c0-1.2.4-2.5 1.2-3.4s1.8-1.7 2.9-2.1c.9-.4 1.8-.6 2.7-.7l2.7-.1a10.7 10.7 0 0 1 6.9 2.5c.6.7 1.1 1.4 1.5 2.2.4.8.6 1.8.6 2.7h12c0-2-.4-3.9-1.3-5.7a17.5 17.5 0 0 0-10.7-9.7 28 28 0 0 0-18.1-.1c-2.6.8-4.9 2.1-7 3.9a15 15 0 0 0-4.4 16.6c.6 1.5 1.4 2.9 2.5 4.1 2.3 2.6 5.3 4.4 8.7 5.1 2.4.5 4.8.9 7.3 1.2 2.5.2 4.9.5 7.3.9 1.4.2 2.8.8 3.8 1.8s1.5 2.3 1.4 3.7c.1 1.2-.3 2.4-1.1 3.4a6 6 0 0 1-2.7 2 14 14 0 0 1-3.5 1c-1.1.2-2.3.2-3.5.2-1.5 0-3.1-.1-4.6-.6-1.2-.4-2.4-1-3.4-1.8a7.6 7.6 0 0 1-2-2.7 8 8 0 0 1-.8-3.4h-11.7c0 2.4.5 4.7 1.6 6.9 2.4 4.7 6.5 8.3 11.5 9.9a34.7 34.7 0 0 0 19.5.1c3-.9 5.7-2.5 7.9-4.6a15.8 15.8 0 0 0 4.6-11.4 13 13 0 0 0-4-10 19 19 0 0 0-10.3-4.8l-3.2-.5-2.5-.3-2.4-.3-3-.3c-1.4-.2-2.8-.7-4.1-1.4a4.9 4.9 0 0 1-2.3-4.3m63.9-41.8h12.6v-35c0-2.6-.4-5.1-1.2-7.5a16.3 16.3 0 0 0-9-9.8 20.3 20.3 0 0 0-16.3.6 14.5 14.5 0 0 0-6.6 6.1l-.9-6.8h-10.6v52.4h12.6V51.4l.2-7.2c.1-2.3.6-4.6 1.5-6.8.8-1.8 2-3.5 3.5-4.8a8.6 8.6 0 0 1 5.5-1.9c3.3 0 5.6.9 6.9 2.6 1.3 2.2 2 4.7 1.8 7.2v32.3zm7.1 53.4c0 2.4-.2 4.8-.7 7.2-.4 2.2-1.5 4.3-3 6a11 11 0 0 1-15.9 0 12.6 12.6 0 0 1-3-6c-.9-4.8-.9-9.7 0-14.4.4-2.2 1.5-4.3 3-6 .9-1 2.1-1.8 3.3-2.4 3-1.3 6.3-1.3 9.3 0 1.2.6 2.4 1.4 3.3 2.4 1.5 1.7 2.6 3.8 3 6 .5 2.4.7 4.8.7 7.2m11.2 11.1c1.2-3.6 1.7-7.4 1.6-11.1.1-3.8-.4-7.5-1.6-11.1-1.1-3-2.6-5.7-4.5-8.2a23.6 23.6 0 0 0-7.5-5.8 25.7 25.7 0 0 0-21.7 0 22.3 22.3 0 0 0-7.5 5.8 28.5 28.5 0 0 0-6.1 19.3c-.1 3.8.4 7.5 1.6 11.1a22 22 0 0 0 12 13.9 25.7 25.7 0 0 0 21.7 0c2.9-1.4 5.4-3.3 7.5-5.7 1.9-2.4 3.4-5.2 4.5-8.2m67.8-95v-5h-29.2V8h-5v29.2h-29.3v5h29.2v29.3h5V42.3H400z"/>
</svg>
