<svg id="Lager_1" data-name="Lager 1" xmlns="http://www.w3.org/2000/svg" width="400" height="153.72" viewBox="0 0 400 153.72" fill="#0A2A4F">
  <title>sm_logo</title>
  <path d="M351,100H340.42v52.42H353V131c0-2.22.06-4.62.2-7.21a19,19,0,0,1,1.51-6.8,13.18,13.18,0,0,1,3.53-4.79,8.35,8.35,0,0,1,5.55-1.86q5,0,6.85,2.62a12.6,12.6,0,0,1,1.81,7.25v32.16h12.6v-35a22.66,22.66,0,0,0-1.21-7.51,16.67,16.67,0,0,0-3.47-5.94,16.16,16.16,0,0,0-5.55-3.89,18.8,18.8,0,0,0-7.51-1.41,21,21,0,0,0-8.82,2,14.19,14.19,0,0,0-6.6,6.1Zm-201.87,0H138.55v52.42h12.6V131q0-3.33.2-7.21a19,19,0,0,1,1.51-6.8,13.3,13.3,0,0,1,3.53-4.79,8.34,8.34,0,0,1,5.54-1.86q5,0,6.86,2.62a12.6,12.6,0,0,1,1.81,7.25v32.16h12.6v-35a22.66,22.66,0,0,0-1.21-7.51,16.67,16.67,0,0,0-3.47-5.94,16.07,16.07,0,0,0-5.55-3.89,18.8,18.8,0,0,0-7.51-1.41,21,21,0,0,0-8.82,2,14.19,14.19,0,0,0-6.6,6.1ZM95.26,137a5.77,5.77,0,0,1,2.31-4.94,9.88,9.88,0,0,1,5.25-1.92l13.3-1v2.41q0,5.85-3.73,8.93a14.72,14.72,0,0,1-9.68,3.07,8.29,8.29,0,0,1-5.19-1.76A5.76,5.76,0,0,1,95.26,137m-10.94-6.35A15.56,15.56,0,0,0,83,137.29a16.23,16.23,0,0,0,1.21,6.2,14.94,14.94,0,0,0,3.58,5.24,17.59,17.59,0,0,0,5.89,3.63,22.86,22.86,0,0,0,8.27,1.36,20.23,20.23,0,0,0,9.88-2.32,14.78,14.78,0,0,0,6-5.54,8.41,8.41,0,0,0,2.52,5.14,8.61,8.61,0,0,0,6.36,2.22,12.49,12.49,0,0,0,3.47-.36,25.39,25.39,0,0,0,2.78-1.05v-9.28a1.13,1.13,0,0,1-.51.1,4,4,0,0,1-1.11.1,2.91,2.91,0,0,1-2.27-.75,4,4,0,0,1-.65-2.57V120c0-1.74-.09-3.53-.25-5.34a18.84,18.84,0,0,0-1.26-5.24,14.35,14.35,0,0,0-7.61-8.32,29.22,29.22,0,0,0-12-2.37,32.53,32.53,0,0,0-8.27,1,20.66,20.66,0,0,0-6.75,3.08,15.44,15.44,0,0,0-4.69,5.29,18.45,18.45,0,0,0-2.06,7.66H97.67a7.16,7.16,0,0,1,2.68-5.55,11,11,0,0,1,6.9-1.91q5.34,0,7.11,2.27a9.53,9.53,0,0,1,1.76,6v3.22l-15.42,1.11a27,27,0,0,0-7,1.46,17.36,17.36,0,0,0-5.64,3.28,15.13,15.13,0,0,0-3.78,5m-67.39-104a7,7,0,0,1-2-5.39,8.23,8.23,0,0,1,.65-3.43,10.43,10.43,0,0,1,1.77-2.62,11,11,0,0,1,5.39-3.12,25,25,0,0,1,6.2-.81,19.76,19.76,0,0,1,6,1,11.31,11.31,0,0,1,4.84,2.82A12.29,12.29,0,0,1,42,18.4a10.34,10.34,0,0,1,1,3.78H56.25a19,19,0,0,0-2.07-8.37A24.91,24.91,0,0,0,49,7a23.68,23.68,0,0,0-8.92-5.2A34.86,34.86,0,0,0,29,0,34.37,34.37,0,0,0,17.14,2,24.42,24.42,0,0,0,8.06,7.56a23.33,23.33,0,0,0-4.53,6.35,17.42,17.42,0,0,0-1.72,7.76,20.19,20.19,0,0,0,1.47,7.92,18.22,18.22,0,0,0,3.93,5.94,19.47,19.47,0,0,0,5.74,4,26.78,26.78,0,0,0,7,2.12c2.35.4,5,.71,7.86.91a65.58,65.58,0,0,1,8,1,13.49,13.49,0,0,1,5.9,2.57A7,7,0,0,1,44.25,52a8.54,8.54,0,0,1-.81,4.09,13.73,13.73,0,0,1-2,2.77,11,11,0,0,1-5.34,3,28.38,28.38,0,0,1-13.46.1A11.34,11.34,0,0,1,17,58.87,13.6,13.6,0,0,1,14.36,55a11.52,11.52,0,0,1-1-4.89H0a21,21,0,0,0,2.12,9.42,23.81,23.81,0,0,0,5.34,7.21,25.62,25.62,0,0,0,10,5.7,39.91,39.91,0,0,0,11.34,1.66,43.46,43.46,0,0,0,12.55-1.77,23.43,23.43,0,0,0,10-5.89,21.45,21.45,0,0,0,4.28-6.25,20.66,20.66,0,0,0,1.67-8.67,20.52,20.52,0,0,0-1.57-8.17,18.81,18.81,0,0,0-4.23-6.19A21,21,0,0,0,45.31,33a30,30,0,0,0-7.61-2.16c-2.35-.34-5-.64-7.81-.91s-5.43-.57-7.71-.91a9.64,9.64,0,0,1-5.25-2.37M77.11,80.94H60.48L41.63,131.85,22.88,80.94H5.34v71.47h12.6V100.8l18.45,50.6H46l18.55-50v51h12.6ZM95.88,41.33H73.2a17.68,17.68,0,0,1,.7-4.54,11.12,11.12,0,0,1,2-3.63,10.39,10.39,0,0,1,3.63-2.92,11.34,11.34,0,0,1,5.14-1.11,12.27,12.27,0,0,1,4.69.81,9.11,9.11,0,0,1,3.27,2.22q3.13,3.42,3.23,9.17m12.5,7a8.92,8.92,0,0,1,.1-1.31,52.94,52.94,0,0,0-.81-9.42A23,23,0,0,0,104,28.73a20,20,0,0,0-8.27-7.31,25.27,25.27,0,0,0-10.89-2.37,23.92,23.92,0,0,0-9.62,1.82,21.92,21.92,0,0,0-7.11,4.83,23.92,23.92,0,0,0-5.7,9.23A35.77,35.77,0,0,0,60.5,46.67a32.37,32.37,0,0,0,2.07,11.79,23.89,23.89,0,0,0,13.1,13.86,23,23,0,0,0,9.42,1.77,27.54,27.54,0,0,0,9.68-1.72,18.8,18.8,0,0,0,8-5.64,23,23,0,0,0,2.88-4.59,14.56,14.56,0,0,0,1.56-5.09H95.07a9.71,9.71,0,0,1-2.52,4.44,7.65,7.65,0,0,1-3.17,2,15.23,15.23,0,0,1-4.49.56,9.65,9.65,0,0,1-4.48-1,14.25,14.25,0,0,1-3.28-2.27,11.28,11.28,0,0,1-2.87-4.53,17.18,17.18,0,0,1-1-5.75h35.08Zm2.41,40.63c-1.52,1.52-4.41,2.48-7.58.2l-.06-.06c-2.32-3.17-1.36-6.08.17-7.61s4.37-2.46,7.5-.24l.23.23c2.19,3.13,1.24,6-.26,7.48m2.64-9.34-.73-.74c-4.41-3.22-9-2.08-11.52.48s-3.7,7.12-.47,11.53h0a3.41,3.41,0,0,0,.74.73A9.5,9.5,0,0,0,107,93.49a8.38,8.38,0,0,0,5.9-2.44c2.54-2.54,3.68-7.08.5-11.48m63.17-6.79h12.5V37.4c0-5.45-1.43-9.86-4.28-13.26s-7.11-5.09-12.75-5.09a19.41,19.41,0,0,0-9.43,2.22,15.9,15.9,0,0,0-6.4,6.35,15.12,15.12,0,0,0-5.75-6.3,17.57,17.57,0,0,0-9.27-2.27,16.59,16.59,0,0,0-9,2.32,18,18,0,0,0-6,5.95l-1-7H114.81V72.78h12.5V44.15a21.31,21.31,0,0,1,.6-4.94,15.21,15.21,0,0,1,1.92-4.58,10.91,10.91,0,0,1,3.22-3.33A8.28,8.28,0,0,1,137.69,30q4.74,0,6.4,2.67a14.19,14.19,0,0,1,1.67,7.51V72.78h12.5V44.15a21.31,21.31,0,0,1,.6-4.94,15.63,15.63,0,0,1,1.86-4.58,10.35,10.35,0,0,1,3.18-3.33A8.25,8.25,0,0,1,168.54,30q4.74,0,6.4,2.67t1.66,7.51ZM202.26,100a20.64,20.64,0,0,0-6.95,3.89,16.66,16.66,0,0,0-3.83,4.88,14.66,14.66,0,0,0-1.51,6.91,13.5,13.5,0,0,0,.85,4.79,13.7,13.7,0,0,0,2.47,4.13,15.65,15.65,0,0,0,8.67,5.09,56.66,56.66,0,0,0,7.26,1.16c2.48.24,4.9.52,7.26.86a6.88,6.88,0,0,1,3.83,1.81,5.05,5.05,0,0,1,1.41,3.73,5.27,5.27,0,0,1-1.06,3.43,7,7,0,0,1-2.67,2,13.15,13.15,0,0,1-3.48,1,25.66,25.66,0,0,1-3.48.25,16.26,16.26,0,0,1-4.58-.55,9.78,9.78,0,0,1-3.38-1.77,7.68,7.68,0,0,1-2-2.72,8.06,8.06,0,0,1-.8-3.42h-11.8a14.66,14.66,0,0,0,1.62,6.85,19.94,19.94,0,0,0,11.49,9.93,29.26,29.26,0,0,0,9.37,1.46A34.49,34.49,0,0,0,221,152.31a18.55,18.55,0,0,0,7.86-4.64,15.72,15.72,0,0,0,3.28-4.84,16.17,16.17,0,0,0,1.26-6.65,13.1,13.1,0,0,0-4-10,19.14,19.14,0,0,0-10.28-4.79l-3.23-.5c-.87-.13-1.71-.25-2.52-.35l-2.42-.31-3-.35a12.06,12.06,0,0,1-4.08-1.36,4,4,0,0,1-2-3.88,5.25,5.25,0,0,1,1.16-3.43,7.19,7.19,0,0,1,2.87-2.11,8.51,8.51,0,0,1,2.72-.71c.88-.07,1.78-.1,2.73-.1a11.83,11.83,0,0,1,3.88.65,7.83,7.83,0,0,1,3,1.77,9.89,9.89,0,0,1,1.51,2.22,6,6,0,0,1,.61,2.72h12a13.65,13.65,0,0,0-1.26-5.7,19.67,19.67,0,0,0-3.37-5.09,17.76,17.76,0,0,0-7.31-4.63,27.81,27.81,0,0,0-9.13-1.52,28.15,28.15,0,0,0-9,1.36m19.9-68.49a20.89,20.89,0,0,1,4.34.5V20a26.81,26.81,0,0,0-3.93-.3,20.06,20.06,0,0,0-8.82,2,11.9,11.9,0,0,0-6,6.55l-1.11-7.86H196V72.78h12.7V46.37a16.33,16.33,0,0,1,3.43-10.59q3.43-4.23,10.08-4.23M258.8,2.93l-.91-1.42a1.69,1.69,0,0,0-2.43-.46l-13.2,9.69a1.69,1.69,0,0,0,1.86,2.82L258.23,5.3a1.7,1.7,0,0,0,.57-2.37m4.1,38.4H240.22a17.65,17.65,0,0,1,.71-4.54,10.77,10.77,0,0,1,2-3.63,10.36,10.36,0,0,1,3.62-2.92,11.35,11.35,0,0,1,5.15-1.11,12.25,12.25,0,0,1,4.68.81,9.24,9.24,0,0,1,3.28,2.22,13.42,13.42,0,0,1,3.22,9.17m12.5,7a10.55,10.55,0,0,1,.1-1.31,53.91,53.91,0,0,0-.8-9.42A23.08,23.08,0,0,0,271,28.73a19.89,19.89,0,0,0-8.27-7.31,25.26,25.26,0,0,0-10.88-2.37,24,24,0,0,0-9.63,1.82,21.92,21.92,0,0,0-7.11,4.83,23.9,23.9,0,0,0-5.69,9.23,35.51,35.51,0,0,0-1.87,11.74,32.37,32.37,0,0,0,2.07,11.79,25.5,25.5,0,0,0,6,9.18,25.16,25.16,0,0,0,7.1,4.68,23.1,23.1,0,0,0,9.43,1.77,27.58,27.58,0,0,0,9.68-1.72,18.93,18.93,0,0,0,8-5.64,23,23,0,0,0,2.87-4.59,14.35,14.35,0,0,0,1.56-5.09H262.1a9.71,9.71,0,0,1-2.52,4.44,7.62,7.62,0,0,1-3.18,2,15.16,15.16,0,0,1-4.48.56,9.7,9.7,0,0,1-4.49-1,14.19,14.19,0,0,1-3.27-2.27,11.3,11.3,0,0,1-2.88-4.53,17.18,17.18,0,0,1-1-5.75H275.4ZM250,114.61a5.25,5.25,0,0,1,1.16-3.43,7.15,7.15,0,0,1,2.88-2.11,8.44,8.44,0,0,1,2.72-.71c.87-.07,1.78-.1,2.72-.1a11.83,11.83,0,0,1,3.88.65,7.83,7.83,0,0,1,3,1.77,9.57,9.57,0,0,1,1.51,2.22,5.89,5.89,0,0,1,.61,2.72h12a13.65,13.65,0,0,0-1.26-5.7,19.67,19.67,0,0,0-3.37-5.09,17.7,17.7,0,0,0-7.31-4.63,27.71,27.71,0,0,0-9.12-1.52,28.06,28.06,0,0,0-9,1.36,20.69,20.69,0,0,0-7,3.89,16.66,16.66,0,0,0-3.83,4.88,14.66,14.66,0,0,0-1.51,6.91,13.29,13.29,0,0,0,.86,4.79,13.67,13.67,0,0,0,2.46,4.13,15.65,15.65,0,0,0,8.67,5.09,56.94,56.94,0,0,0,7.26,1.16c2.49.24,4.91.52,7.26.86a6.85,6.85,0,0,1,3.83,1.81,5.05,5.05,0,0,1,1.41,3.73,5.27,5.27,0,0,1-1.06,3.43,6.89,6.89,0,0,1-2.67,2,13,13,0,0,1-3.48,1,25.63,25.63,0,0,1-3.47.25,16.29,16.29,0,0,1-4.59-.55,9.87,9.87,0,0,1-3.38-1.77,7.66,7.66,0,0,1-2-2.72,7.93,7.93,0,0,1-.81-3.42H236.63a14.65,14.65,0,0,0,1.61,6.85,19.94,19.94,0,0,0,11.49,9.93,29.26,29.26,0,0,0,9.37,1.46,34.61,34.61,0,0,0,10.09-1.41,18.55,18.55,0,0,0,7.86-4.64,15.87,15.87,0,0,0,3.27-4.84,16.17,16.17,0,0,0,1.26-6.65,13.1,13.1,0,0,0-4-10,19.14,19.14,0,0,0-10.28-4.79l-3.23-.5c-.87-.13-1.71-.25-2.52-.35l-2.42-.31-3-.35a12.06,12.06,0,0,1-4.08-1.36,4,4,0,0,1-2-3.88m63.86-41.83h12.6v-35a22.62,22.62,0,0,0-1.21-7.51,17,17,0,0,0-3.48-5.95,16.1,16.1,0,0,0-5.54-3.88,18.87,18.87,0,0,0-7.51-1.41,20.91,20.91,0,0,0-8.82,2,14.1,14.1,0,0,0-6.6,6.1l-.91-6.76H281.83V72.78h12.6V51.41q0-3.33.2-7.21a18.94,18.94,0,0,1,1.52-6.8,13.19,13.19,0,0,1,3.52-4.79,8.35,8.35,0,0,1,5.55-1.87q5,0,6.85,2.63a12.56,12.56,0,0,1,1.82,7.25ZM321,126.2a36.2,36.2,0,0,1-.71,7.21,12.33,12.33,0,0,1-3,6,11,11,0,0,1-3.33,2.37,11.06,11.06,0,0,1-12.6-2.37,12.16,12.16,0,0,1-3-6,37,37,0,0,1,0-14.42,12.17,12.17,0,0,1,3-6,10.73,10.73,0,0,1,3.33-2.37,11.67,11.67,0,0,1,9.27,0,11,11,0,0,1,3.33,2.37,12.34,12.34,0,0,1,3,6,36.28,36.28,0,0,1,.71,7.21m11.18,11.14a33.07,33.07,0,0,0,1.62-11.14,33.11,33.11,0,0,0-1.62-11.14,29.15,29.15,0,0,0-4.53-8.21,23,23,0,0,0-7.51-5.75,25.47,25.47,0,0,0-21.67,0,22.74,22.74,0,0,0-7.51,5.75,29.43,29.43,0,0,0-4.54,8.21,33.39,33.39,0,0,0-1.61,11.14,33.34,33.34,0,0,0,1.61,11.14,29.48,29.48,0,0,0,4.54,8.22,22.72,22.72,0,0,0,7.51,5.74,25.47,25.47,0,0,0,21.67,0,22.93,22.93,0,0,0,7.51-5.74,29.2,29.2,0,0,0,4.53-8.22M400,42.29v-5H370.77V8h-5V37.25H336.5v5h29.23V71.52h5V42.29Z"/>
</svg>
