<svg version="1.1" xmlns="http://www.w3.org/2000/svg" x="0px" y="0px" viewBox="0 0 720 720" xml:space="preserve">
  <path d="m587.3 190.6 13.4-13.4a319.2 319.2 0 0 1 25.7 39.9H637V83.2H503.2v10.5c13.9 7.5 27.1 16 39.6 25.5l-13.4 13.4A282.78 282.78 0 0 0 360 76.5C203.4 76.5 76.5 203.4 76.5 360S203.4 643.5 360 643.5 643.5 516.6 643.5 360c0-63.5-20.9-122.1-56.2-169.4zm-20 220.7c-23 93.1-107 162.2-207.3 162.2-100.2 0-184.3-69.1-207.3-162.2h414.6zM152.7 308.7c23-93.1 107-162.2 207.3-162.2 100.2 0 184.3 69.1 207.3 162.2H152.7zm359.2 51.1c.2-10.2 5.1-19.1 13.5-19 8.4.1 12.8 9.2 12.7 19.4-.2 9.6-4.2 19.6-13.4 19.5-9-.1-12.9-10.1-12.8-19.9zm-235.4 0c.2-10.2 5.1-19.1 13.5-19 8.4.1 12.8 9.2 12.7 19.4-.2 9.6-4.1 19.6-13.4 19.5-9-.1-12.9-10.1-12.8-19.9zm13.1-27.3c24.6 0 37.8 12.3 37.8 27.7 0 15.6-12.4 28-37.6 28-25.2 0-37.8-12.4-37.8-28-.1-15.5 13-27.7 37.6-27.7zm-76.5 41.9 17.7-32.7h-10.6v-8.1h36.6v8.1h-12.2l-24.3 44.9h-28.6L167 341.7h-12.1v-8.1H208v8.1h-12.8l17.9 32.7zM525 332.5c24.6 0 37.8 12.3 37.8 27.7 0 15.6-12.4 28-37.6 28-25.2 0-37.8-12.4-37.8-28-.1-15.5 13-27.7 37.6-27.7zm-122.4 9.2h-12.2v-8.1h53.1v8.1h-12.8l17.9 32.7 17.7-32.7h-10.6v-8.1h36.6v8.1h-12.2l-24.3 44.9h-28.6l-24.6-44.9zm-59.9 0h-12.3v-8.1h48.9v8.1h-12.2v36.6h11.3c10.5 0 17.3-6.9 17.3-16.3h8.1v24.5h-73.5v-8.2h12.3l.1-36.6z" fill="#0a2a4f"/>
</svg>
