<svg xmlns="http://www.w3.org/2000/svg" width="491.59" height="120.31" viewBox="0 0 491.59 120.31">
  <defs>
    <style>
      .cls-1{fill:#0a2a4f}
    </style>
  </defs>
  <path class="cls-1" d="M80.17 54.07a5.82 5.82 0 0 0 5.83-5.8 5.94 5.94 0 0 0-5.79-5.93 6 6 0 0 0-5.92 5.93 5.89 5.89 0 0 0 5.88 5.8Zm72.59 4.05c-4.72 0-8.91 2-10.3 5.58l-.53-2.6a2.57 2.57 0 0 0-2.41-2h-5.61a.44.44 0 0 0-.44.43V98a.45.45 0 0 0 .45.45h8.55a.45.45 0 0 0 .45-.45V75.47c0-5.57 3.33-8.52 7.83-8.52 3.33 0 6.58 2.56 6.58 7.9V98a.45.45 0 0 0 .45.45h8.57a.44.44 0 0 0 .43-.44v-25.4c0-10.3-7.2-14.49-14.02-14.49ZM70.41 44h-9a.43.43 0 0 0-.42.32L50.08 82l-13.6-37.68a.44.44 0 0 0-.42-.3h-9.22a.44.44 0 0 0-.41.6l1.5 4.17a19.65 19.65 0 0 1 0 13.36L20.77 82 9.91 44.34a.45.45 0 0 0-.43-.34h-9a.44.44 0 0 0-.42.57l15 52.05a2.46 2.46 0 0 0 2.36 1.78h7.27a.45.45 0 0 0 .42-.29l10.32-28.56 9.84 27.24a2.46 2.46 0 0 0 2.31 1.63H55a.43.43 0 0 0 .42-.32l15.41-53.51a.44.44 0 0 0-.42-.59Zm43.06 14.12a14 14 0 0 0-11.26 5.58l-.53-2.6a2.46 2.46 0 0 0-2.41-2h-5.64a.44.44 0 0 0-.44.44V98a.45.45 0 0 0 .44.45h8.59a.44.44 0 0 0 .44-.45V74.16a7.19 7.19 0 0 1 7.19-7.16 7.18 7.18 0 0 1 7.15 7.16V98a.45.45 0 0 0 .45.45h8.58a.44.44 0 0 0 .44-.45V71.15a13 13 0 0 0-13-13.03Zm98.39 0c-4.72 0-8.9 2-10.3 5.58l-.56-2.6a2.58 2.58 0 0 0-2.42-2H193a.43.43 0 0 0-.43.43V98a.45.45 0 0 0 .45.45h8.56A.44.44 0 0 0 202 98V75.47c0-5.57 3.33-8.52 7.82-8.52 3.33 0 6.58 2.56 6.58 7.9V98a.45.45 0 0 0 .45.45h8.57a.44.44 0 0 0 .44-.44v-25.4c.03-10.3-7.18-14.49-14-14.49Zm120.83 23.17v-7.36a17.23 17.23 0 0 0-33.61-5.34v.11a.7.7 0 0 0-.06.17 30.4 30.4 0 0 0-.08 17.56 18 18 0 0 0 17.18 13.11 17.47 17.47 0 0 0 12.59-5.26 17.11 17.11 0 0 0 3.3-4.59l.13-.27-7.14-3.54-.14.27a8.88 8.88 0 0 1-1.86 2.49 9.62 9.62 0 0 1-6.93 2.91 10 10 0 0 1-9.87-10v-.25Zm-8-8h-18.45a9.24 9.24 0 0 1 18.44 0ZM287.64 99a12.78 12.78 0 0 0 5.7-1.32.23.23 0 0 0 .13-.21v-7.79a.23.23 0 0 0-.1-.19.25.25 0 0 0-.24 0 8.29 8.29 0 0 1-3.32.86c-1.39 0-3.7-.67-3.7-5.17V66.51h7.13a.23.23 0 0 0 .23-.23v-7.72a.22.22 0 0 0-.23-.22h-7.13v-7.79a.44.44 0 0 0-.44-.43h-8.15a.44.44 0 0 0-.44.43v3.89a3.9 3.9 0 0 1-3.29 3.85.44.44 0 0 0-.39.43v7.56a.23.23 0 0 0 .23.23h3.45V87c0 8.82 5.46 12 10.56 12Zm90.72-41.33a12.49 12.49 0 0 0-4.79.84 14.53 14.53 0 0 0-6.54 5 13 13 0 0 0-11.17-5.87c-4.36 0-8 1.88-9.6 4.87l-.35-1.86a2.46 2.46 0 0 0-2.42-2h-5.41a.71.71 0 0 0-.71.71v38.47a.76.76 0 0 0 .75.75h8.05a.71.71 0 0 0 .72-.71V75.33c0-5.06 2.71-8.21 7.07-8.21 2.93 0 5.9 2.35 5.9 7.59v23.12a.76.76 0 0 0 .75.75h8.05a.71.71 0 0 0 .72-.71V75.33c0-5.06 2.71-8.21 7.07-8.21 2.94 0 5.9 2.35 5.9 7.59v23.12a.76.76 0 0 0 .75.75h8a.71.71 0 0 0 .72-.71v-25.4c.05-10.92-7.23-14.79-13.46-14.8Zm40.2.33a15 15 0 0 0-11.39 5.21l-.46-2.21a2.57 2.57 0 0 0-2.41-2h-5.61a.44.44 0 0 0-.44.44v56.26a.44.44 0 0 0 .44.44h8.56a.45.45 0 0 0 .45-.45V94a15.05 15.05 0 0 0 10.85 4.61 15.1 15.1 0 0 0 15.1-15.1V73.09A15.1 15.1 0 0 0 418.56 58Zm5.65 23.14a8.25 8.25 0 0 1-16.49 0v-5.69a8.25 8.25 0 1 1 16.49 0ZM256.85 96.5h-11.47a2.32 2.32 0 0 1 0-4.63h3.33a18.35 18.35 0 0 0 12.92-5.45 16.69 16.69 0 0 0 5-11.91 17 17 0 0 0-3.35-10c2.56-1.34 4.07-3.63 5.32-5.91a.64.64 0 0 0 .05-.49.58.58 0 0 0-.3-.38l-6.26-3.35a.65.65 0 0 0-.86.27c-1.55 2.84-1.83 2.84-4.57 2.84h-7.23A17.15 17.15 0 0 0 237.48 87a10.64 10.64 0 0 0-1.27 12.61 11.78 11.78 0 0 0-2.74 14 12.3 12.3 0 0 0 11.13 6.67h12.77a11.93 11.93 0 0 0 11.85-13.1c-.59-5.98-6.02-10.68-12.37-10.68Zm4.07 11.9a3.55 3.55 0 0 1-3.55 3.55h-13.22a3.55 3.55 0 0 1 0-7.09h13.22a3.55 3.55 0 0 1 3.55 3.54Zm-20.31-33.7a8.81 8.81 0 1 1 8.81 8.81 8.82 8.82 0 0 1-8.81-8.81Zm-61.05-20.63a5.82 5.82 0 0 0 5.78-5.8 5.94 5.94 0 0 0-5.78-5.93 6 6 0 0 0-5.93 5.93 5.9 5.9 0 0 0 5.93 5.8Zm.31 5.69a16.83 16.83 0 0 1-4.38-.59.42.42 0 0 0-.54.41V98a.45.45 0 0 0 .45.45h8.6a.45.45 0 0 0 .44-.45V59.66a.43.43 0 0 0-.54-.42 16.07 16.07 0 0 1-4.03.52Zm-99.57 0a16.71 16.71 0 0 1-4.38-.59.43.43 0 0 0-.55.41V98a.45.45 0 0 0 .45.45h8.57a.45.45 0 0 0 .45-.45V59.65a.43.43 0 0 0-.55-.41 16 16 0 0 1-3.99.52ZM483.58 16a8 8 0 1 1 8-8 8 8 0 0 1-8 8Zm0-12.59A4.58 4.58 0 1 0 488.16 8a4.58 4.58 0 0 0-4.58-4.57Zm-.44 20.26A17.39 17.39 0 0 1 468.07 8.6a28.27 28.27 0 0 0-21.77 0 17.4 17.4 0 0 1-15.07 15.07 28.15 28.15 0 0 0 0 21.77 17.42 17.42 0 0 1 15.07 15.08 28.27 28.27 0 0 0 21.77 0 17.41 17.41 0 0 1 15.07-15.08 28.15 28.15 0 0 0 0-21.77Zm-12.54-2.53a20.87 20.87 0 0 0 10 5.56 24.22 24.22 0 0 1 1.21 6.14A25.5 25.5 0 0 1 458.9 9.91a24.57 24.57 0 0 1 6.1 1.21 21 21 0 0 0 5.6 10.02ZM450.54 41.2a28.86 28.86 0 0 0-10.31-6.64 29 29 0 0 0 16.95-17 28.94 28.94 0 0 0 17 17 28.94 28.94 0 0 0-17 17 28.81 28.81 0 0 0-6.64-10.36Zm-6.77-20.06a21 21 0 0 0 5.56-10 24.5 24.5 0 0 1 6.13-1.21 25.48 25.48 0 0 1-22.92 22.93 24.22 24.22 0 0 1 1.21-6.14 21 21 0 0 0 10.02-5.58Zm0 26.83a21 21 0 0 0-10-5.56 24.06 24.06 0 0 1-1.21-6.13 25.48 25.48 0 0 1 22.92 22.93 24.51 24.51 0 0 1-6.15-1.21 21 21 0 0 0-5.56-10Zm26.83 0A21 21 0 0 0 465 58a24.59 24.59 0 0 1-6.14 1.22 25.5 25.5 0 0 1 22.93-22.93 24.06 24.06 0 0 1-1.21 6.13A21 21 0 0 0 470.6 48Z"/>
</svg>
